<svg version="1.1" id="Layer_1" xmlns="http://www.w3.org/2000/svg" xmlns:xlink="http://www.w3.org/1999/xlink" x="0px" y="0px"
	 width="100%" viewBox="0 0 381 80" enable-background="new 0 0 381 80" xml:space="preserve">
<path fill="#FFFEFE" opacity="1.000000" stroke="none" 
	d="
M276.000000,81.000000 
	C184.000000,81.000000 92.500000,81.000000 1.000000,81.000000 
	C1.000000,54.333332 1.000000,27.666666 1.000000,1.000000 
	C128.000000,1.000000 255.000000,1.000000 382.000000,1.000000 
	C382.000000,27.666666 382.000000,54.333332 382.000000,81.000000 
	C346.833344,81.000000 311.666656,81.000000 276.000000,81.000000 
M42.494545,76.121971 
	C45.327526,76.120186 48.161339,76.072891 50.993332,76.124992 
	C60.097694,76.292480 66.760246,72.069458 70.823631,64.217361 
	C74.922638,56.296432 74.055122,48.297779 68.828011,41.132843 
	C66.918724,38.515743 66.702423,36.579617 67.781265,33.560871 
	C72.513016,20.320807 63.803970,6.359535 49.816067,5.004838 
	C42.546120,4.300761 35.173161,4.713366 27.852835,4.451153 
	C24.784798,4.341257 23.979942,5.902527 24.390465,8.446798 
	C25.108959,12.899768 23.101997,15.921334 19.939142,18.805723 
	C15.018888,23.292778 10.567944,28.294466 5.647450,32.781231 
	C2.597619,35.562229 1.613098,38.514019 3.098428,43.221741 
	C10.916227,35.030067 18.335951,27.255505 25.460144,19.790607 
	C31.936661,26.345646 37.634453,32.112518 43.397377,37.945312 
	C43.306301,38.025784 42.659916,38.678185 42.606365,38.632694 
	C37.041729,33.905750 31.521719,29.126278 25.381294,23.815676 
	C18.224230,31.154102 11.011781,38.522228 3.849249,45.938564 
	C3.190038,46.621136 2.433992,47.606487 2.424366,48.459164 
	C2.321610,57.560513 2.360509,66.663460 2.360509,76.122246 
	C15.865096,76.122246 28.680862,76.122246 42.494545,76.121971 
M128.693710,67.827286 
	C131.206161,61.137257 129.890823,55.508224 123.845642,51.348774 
	C132.647659,42.556229 127.222504,31.109472 118.119904,30.503168 
	C109.584450,29.934637 100.981361,30.381426 92.353806,30.381426 
	C92.353806,45.668171 92.353806,60.673981 92.353806,76.003860 
	C94.368340,76.003860 96.011909,76.012482 97.655357,76.002319 
	C103.803467,75.964325 109.959579,76.099319 116.097176,75.823799 
	C121.363739,75.587372 125.705902,73.387421 128.693710,67.827286 
M295.409271,71.802315 
	C299.281891,66.433815 299.685883,60.289768 298.824188,54.106892 
	C297.120300,41.881084 285.826141,37.478943 276.024139,45.014648 
	C275.875122,45.129219 275.467896,44.907925 274.830658,44.764473 
	C274.830658,40.054043 274.830658,35.277588 274.830658,30.407234 
	C271.768982,30.407234 269.075256,30.407234 266.355774,30.407234 
	C266.355774,45.721146 266.355774,60.631805 266.355774,76.515671 
	C269.900360,75.816925 272.960846,75.213615 277.207367,74.376495 
	C283.185760,78.484215 288.774811,78.195000 295.409271,71.802315 
M308.311554,64.203224 
	C307.595825,68.611794 308.177765,72.610893 312.377136,75.107567 
	C318.558411,78.782539 324.207153,76.665062 329.647339,73.050316 
	C329.572906,73.592758 329.498444,74.135208 329.424011,74.677650 
	C332.965149,75.271980 336.506287,75.866302 339.901337,76.436111 
	C339.466034,72.880486 338.932220,70.161179 338.842712,67.427322 
	C338.684753,62.602207 338.847382,57.767586 338.785095,52.938114 
	C338.697296,46.126450 336.496185,42.941517 329.853729,41.756832 
	C326.041046,41.076839 321.879272,41.240879 318.058746,41.978607 
	C312.279816,43.094501 310.190125,46.176197 309.558380,52.777351 
	C313.107147,52.640213 316.768799,54.529148 319.527008,49.877247 
	C320.360199,48.471977 324.618042,48.785648 327.270111,48.941719 
	C328.181519,48.995354 329.709106,51.026062 329.626129,52.045357 
	C329.542328,53.074375 327.952789,54.496803 326.771332,54.816227 
	C324.062836,55.548500 321.193298,55.665993 318.403351,56.120354 
	C313.873535,56.858063 310.166229,58.752651 308.311554,64.203224 
M152.847916,41.099754 
	C143.732025,42.569664 141.128220,44.923008 140.293320,52.666512 
	C143.883118,52.767651 147.461273,54.442783 150.219162,49.872192 
	C151.061142,48.476791 155.027603,48.546371 157.499023,48.744564 
	C158.614395,48.834015 159.572754,50.881462 160.602341,52.040562 
	C159.433945,53.020172 158.404282,54.525448 157.070282,54.877472 
	C153.549088,55.806667 149.818237,55.955956 146.313278,56.928802 
	C140.954636,58.416168 138.384354,62.730667 138.974472,68.403442 
	C139.472549,73.191589 143.140915,76.938095 148.526047,76.720123 
	C152.647903,76.553276 156.709198,74.889824 160.910446,73.864456 
	C163.102097,78.012054 167.158081,75.474083 170.529343,75.673759 
	C170.055878,72.852280 169.380615,70.439178 169.298004,68.005959 
	C169.117188,62.680233 169.304153,57.343193 169.216553,52.012821 
	C169.115509,45.865906 167.106766,43.235542 161.132797,41.797432 
	C158.743759,41.222317 156.199142,41.293434 152.847916,41.099754 
M221.632721,66.563248 
	C226.201904,75.745201 235.760452,79.399384 245.035126,75.509857 
	C253.324875,72.033379 257.180542,61.988804 253.975632,52.218575 
	C251.251144,43.912926 242.591797,39.357121 233.519272,41.456192 
	C224.098007,43.635952 218.998459,51.696587 220.586441,61.921810 
	C220.790344,63.234692 221.066925,64.536285 221.632721,66.563248 
M184.521210,74.094421 
	C189.859024,77.949944 195.873886,77.574852 201.790588,76.414436 
	C208.203751,75.156677 211.068970,71.619667 211.175430,65.924080 
	C211.275589,60.565208 209.096634,58.083317 202.459778,56.162766 
	C199.111755,55.193924 195.688187,54.468494 192.385773,53.371166 
	C191.478348,53.069653 190.177368,51.682175 190.305634,51.043976 
	C190.520508,49.974880 191.740982,48.301609 192.533859,48.304066 
	C195.051422,48.311863 198.711853,48.083168 199.862808,49.558731 
	C202.981293,53.556801 206.275711,52.119041 209.881439,51.707592 
	C208.144821,43.017353 200.791061,39.205578 190.841354,41.483826 
	C185.089767,42.800800 181.313614,46.897881 181.133331,52.016884 
	C180.964401,56.813728 183.917328,60.152241 190.002228,61.875084 
	C193.198395,62.780029 196.519897,63.301781 199.634369,64.416763 
	C202.046341,65.280258 203.482956,68.126373 200.728699,69.058022 
	C197.705246,70.080734 192.052490,70.142723 190.836487,68.368149 
	C187.690903,63.777672 184.194870,65.398232 179.241699,65.469452 
	C181.090057,68.660995 182.520889,71.131615 184.521210,74.094421 
M364.555359,47.835678 
	C366.093903,48.320862 368.425110,48.339546 369.032990,49.372444 
	C371.588043,53.713913 375.235443,52.018429 378.895050,51.951801 
	C379.162506,46.803284 376.509033,43.516891 372.259766,42.468540 
	C368.202576,41.467587 363.689056,41.251415 359.556274,41.878056 
	C353.747833,42.758762 350.595093,46.922058 350.426849,52.152588 
	C350.278992,56.749794 353.117310,60.057648 358.942139,61.789661 
	C362.125305,62.736179 365.436249,63.271843 368.580109,64.320892 
	C369.607178,64.663620 370.583893,65.924103 371.011353,66.993599 
	C371.247009,67.583191 370.284241,69.387001 369.879517,69.381317 
	C366.556183,69.334587 361.437042,70.217781 360.266052,68.499527 
	C357.189850,63.985657 353.610382,65.354027 348.221100,65.316093 
	C350.457611,68.852875 351.654755,72.035759 353.903717,74.036049 
	C358.701508,78.303352 370.907532,78.184517 376.157959,74.369728 
	C379.554443,71.901962 381.034973,68.486603 380.572510,64.378387 
	C380.106659,60.240150 377.419678,57.931305 373.565796,56.839371 
	C370.208099,55.888012 366.775665,55.151287 363.504211,53.966347 
	C361.965485,53.409016 360.727386,52.021721 359.353058,51.010513 
	C360.814606,49.958775 362.276184,48.907036 364.555359,47.835678 
z"/>
<path fill="#E3775C" opacity="1.000000" stroke="none" 
	d="
M41.995586,76.122108 
	C28.680862,76.122246 15.865096,76.122246 2.360509,76.122246 
	C2.360509,66.663460 2.321610,57.560513 2.424366,48.459164 
	C2.433992,47.606487 3.190038,46.621136 3.849249,45.938564 
	C11.011781,38.522228 18.224230,31.154102 25.381294,23.815676 
	C31.521719,29.126278 37.041729,33.905750 42.606365,38.632694 
	C42.659916,38.678185 43.306301,38.025784 43.397377,37.945312 
	C37.634453,32.112518 31.936661,26.345646 25.460144,19.790607 
	C18.335951,27.255505 10.916227,35.030067 3.098428,43.221741 
	C1.613098,38.514019 2.597619,35.562229 5.647450,32.781231 
	C10.567944,28.294466 15.018888,23.292778 19.939142,18.805723 
	C23.101997,15.921334 25.108959,12.899768 24.390465,8.446798 
	C23.979942,5.902527 24.784798,4.341257 27.852835,4.451153 
	C35.173161,4.713366 42.546120,4.300761 49.816067,5.004838 
	C63.803970,6.359535 72.513016,20.320807 67.781265,33.560871 
	C66.702423,36.579617 66.918724,38.515743 68.828011,41.132843 
	C74.055122,48.297779 74.922638,56.296432 70.823631,64.217361 
	C66.760246,72.069458 60.097694,76.292480 50.993332,76.124992 
	C48.161339,76.072891 45.327526,76.120186 41.995586,76.122108 
M53.760872,11.328105 
	C45.921757,10.714359 38.082645,10.100613 30.243532,9.486867 
	C29.780128,10.215396 29.316725,10.943924 28.853321,11.672453 
	C33.378777,22.648329 44.859879,28.231092 50.922733,36.927986 
	C47.670261,40.266449 44.689384,43.326134 40.662262,47.459728 
	C35.931427,42.299152 31.051535,36.975979 25.790535,31.237076 
	C20.020391,37.139709 14.671599,42.590183 9.359887,48.076553 
	C8.807734,48.646862 8.107750,49.425240 8.098375,50.115528 
	C8.004656,57.015289 8.041462,63.916821 8.041462,71.009300 
	C23.256779,71.009300 37.731293,71.356377 52.180859,70.904961 
	C64.881233,70.508194 71.925056,56.444164 65.138794,45.682106 
	C63.477448,43.047436 61.205177,40.797997 59.223183,38.382900 
	C66.437599,26.067722 65.030312,18.265034 53.760872,11.328105 
z"/>
<path fill="#E47054" opacity="1.000000" stroke="none" 
	d="
M128.495850,68.159134 
	C125.705902,73.387421 121.363739,75.587372 116.097176,75.823799 
	C109.959579,76.099319 103.803467,75.964325 97.655357,76.002319 
	C96.011909,76.012482 94.368340,76.003860 92.353806,76.003860 
	C92.353806,60.673981 92.353806,45.668171 92.353806,30.381426 
	C100.981361,30.381426 109.584450,29.934637 118.119904,30.503168 
	C127.222504,31.109472 132.647659,42.556229 123.845642,51.348774 
	C129.890823,55.508224 131.206161,61.137257 128.495850,68.159134 
M105.621490,55.874935 
	C104.202271,55.990604 102.783051,56.106274 101.426468,56.216835 
	C101.426468,60.358761 101.426468,64.062241 101.426468,67.956581 
	C106.104637,67.956581 110.413315,68.198349 114.680779,67.882828 
	C118.328880,67.613091 120.226807,65.279915 120.185623,61.504124 
	C120.144562,57.740234 117.902931,56.188660 114.524162,55.967831 
	C111.884827,55.795326 109.227608,55.896400 105.621490,55.874935 
M106.570229,37.973946 
	C104.821915,37.973946 103.073601,37.973946 101.325882,37.973946 
	C101.325882,41.684704 101.325882,44.611362 101.325882,47.958755 
	C105.709000,47.958755 109.926987,48.487671 113.901642,47.733765 
	C115.864494,47.361443 118.344711,44.880821 118.876358,42.895119 
	C119.745232,39.649902 116.914879,38.323883 113.993874,38.071438 
	C111.845871,37.885803 109.672058,37.998909 106.570229,37.973946 
z"/>
<path fill="#E27357" opacity="1.000000" stroke="none" 
	d="
M295.186676,72.103226 
	C288.774811,78.195000 283.185760,78.484215 277.207367,74.376495 
	C272.960846,75.213615 269.900360,75.816925 266.355774,76.515671 
	C266.355774,60.631805 266.355774,45.721146 266.355774,30.407234 
	C269.075256,30.407234 271.768982,30.407234 274.830658,30.407234 
	C274.830658,35.277588 274.830658,40.054043 274.830658,44.764473 
	C275.467896,44.907925 275.875122,45.129219 276.024139,45.014648 
	C285.826141,37.478943 297.120300,41.881084 298.824188,54.106892 
	C299.685883,60.289768 299.281891,66.433815 295.186676,72.103226 
M289.830963,56.091923 
	C288.855072,52.143986 287.244476,48.944031 282.395172,48.898232 
	C278.650116,48.862865 276.175934,50.822388 275.556519,54.136543 
	C274.937103,57.450882 274.562927,61.279114 275.676605,64.292419 
	C276.481598,66.470360 279.857819,68.907082 282.157318,68.978645 
	C284.392944,69.048218 287.423187,66.708496 288.797272,64.582031 
	C290.071869,62.609524 289.619385,59.520992 289.830963,56.091923 
z"/>
<path fill="#E37358" opacity="1.000000" stroke="none" 
	d="
M308.439087,63.825928 
	C310.166229,58.752651 313.873535,56.858063 318.403351,56.120354 
	C321.193298,55.665993 324.062836,55.548500 326.771332,54.816227 
	C327.952789,54.496803 329.542328,53.074375 329.626129,52.045357 
	C329.709106,51.026062 328.181519,48.995354 327.270111,48.941719 
	C324.618042,48.785648 320.360199,48.471977 319.527008,49.877247 
	C316.768799,54.529148 313.107147,52.640213 309.558380,52.777351 
	C310.190125,46.176197 312.279816,43.094501 318.058746,41.978607 
	C321.879272,41.240879 326.041046,41.076839 329.853729,41.756832 
	C336.496185,42.941517 338.697296,46.126450 338.785095,52.938114 
	C338.847382,57.767586 338.684753,62.602207 338.842712,67.427322 
	C338.932220,70.161179 339.466034,72.880486 339.901337,76.436111 
	C336.506287,75.866302 332.965149,75.271980 329.424011,74.677650 
	C329.498444,74.135208 329.572906,73.592758 329.647339,73.050316 
	C324.207153,76.665062 318.558411,78.782539 312.377136,75.107567 
	C308.177765,72.610893 307.595825,68.611794 308.439087,63.825928 
M318.673157,69.723412 
	C326.362122,71.878387 331.037964,67.682693 329.274567,60.061375 
	C326.558990,60.651386 323.800781,61.104607 321.130127,61.865211 
	C317.140533,63.001453 315.747223,65.392433 318.673157,69.723412 
z"/>
<path fill="#E27256" opacity="1.000000" stroke="none" 
	d="
M153.286621,41.085075 
	C156.199142,41.293434 158.743759,41.222317 161.132797,41.797432 
	C167.106766,43.235542 169.115509,45.865906 169.216553,52.012821 
	C169.304153,57.343193 169.117188,62.680233 169.298004,68.005959 
	C169.380615,70.439178 170.055878,72.852280 170.529343,75.673759 
	C167.158081,75.474083 163.102097,78.012054 160.910446,73.864456 
	C156.709198,74.889824 152.647903,76.553276 148.526047,76.720123 
	C143.140915,76.938095 139.472549,73.191589 138.974472,68.403442 
	C138.384354,62.730667 140.954636,58.416168 146.313278,56.928802 
	C149.818237,55.955956 153.549088,55.806667 157.070282,54.877472 
	C158.404282,54.525448 159.433945,53.020172 160.602341,52.040565 
	C159.572754,50.881462 158.614395,48.834015 157.499023,48.744564 
	C155.027603,48.546371 151.061142,48.476791 150.219162,49.872192 
	C147.461273,54.442783 143.883118,52.767651 140.293320,52.666512 
	C141.128220,44.923008 143.732025,42.569664 153.286621,41.085075 
M151.591827,61.901726 
	C148.420227,62.760956 146.812225,65.210716 148.310577,67.827080 
	C149.153763,69.299438 152.438019,70.253242 154.446823,70.006966 
	C159.619446,69.372826 161.439270,65.801201 160.072754,60.071846 
	C157.517731,60.626087 154.951828,61.182690 151.591827,61.901726 
z"/>
<path fill="#E37358" opacity="1.000000" stroke="none" 
	d="
M221.471283,66.203178 
	C221.066925,64.536285 220.790344,63.234692 220.586441,61.921810 
	C218.998459,51.696587 224.098007,43.635952 233.519272,41.456192 
	C242.591797,39.357121 251.251144,43.912926 253.975632,52.218575 
	C257.180542,61.988804 253.324875,72.033379 245.035126,75.509857 
	C235.760452,79.399384 226.201904,75.745201 221.471283,66.203178 
M231.711792,51.289928 
	C231.193832,55.448055 229.895920,59.720280 230.480606,63.717098 
	C230.781631,65.774872 234.175598,68.126656 236.636688,68.940903 
	C240.032745,70.064507 243.121704,68.447296 244.697067,64.862694 
	C246.766006,60.154995 245.985992,52.866688 242.764191,50.395584 
	C239.341919,47.770756 235.688583,48.122700 231.711792,51.289928 
z"/>
<path fill="#E37357" opacity="1.000000" stroke="none" 
	d="
M184.236465,73.848328 
	C182.520889,71.131615 181.090057,68.660995 179.241699,65.469452 
	C184.194870,65.398232 187.690903,63.777672 190.836487,68.368149 
	C192.052490,70.142723 197.705246,70.080734 200.728699,69.058022 
	C203.482956,68.126373 202.046341,65.280258 199.634369,64.416763 
	C196.519897,63.301781 193.198395,62.780029 190.002228,61.875084 
	C183.917328,60.152241 180.964401,56.813728 181.133331,52.016884 
	C181.313614,46.897881 185.089767,42.800800 190.841354,41.483826 
	C200.791061,39.205578 208.144821,43.017353 209.881439,51.707592 
	C206.275711,52.119041 202.981293,53.556801 199.862808,49.558731 
	C198.711853,48.083168 195.051422,48.311863 192.533859,48.304066 
	C191.740982,48.301609 190.520508,49.974880 190.305634,51.043976 
	C190.177368,51.682175 191.478348,53.069653 192.385773,53.371166 
	C195.688187,54.468494 199.111755,55.193924 202.459778,56.162766 
	C209.096634,58.083317 211.275589,60.565208 211.175430,65.924080 
	C211.068970,71.619667 208.203751,75.156677 201.790588,76.414436 
	C195.873886,77.574852 189.859024,77.949944 184.236465,73.848328 
z"/>
<path fill="#E27458" opacity="1.000000" stroke="none" 
	d="
M364.146545,47.845490 
	C362.276184,48.907036 360.814606,49.958775 359.353058,51.010521 
	C360.727386,52.021721 361.965485,53.409016 363.504211,53.966347 
	C366.775665,55.151287 370.208099,55.888012 373.565796,56.839371 
	C377.419678,57.931305 380.106659,60.240150 380.572510,64.378387 
	C381.034973,68.486603 379.554443,71.901962 376.157959,74.369728 
	C370.907532,78.184517 358.701508,78.303352 353.903717,74.036049 
	C351.654755,72.035759 350.457611,68.852875 348.221100,65.316093 
	C353.610382,65.354027 357.189850,63.985657 360.266052,68.499527 
	C361.437042,70.217781 366.556183,69.334587 369.879517,69.381317 
	C370.284241,69.387001 371.247009,67.583191 371.011353,66.993599 
	C370.583893,65.924103 369.607178,64.663620 368.580109,64.320892 
	C365.436249,63.271843 362.125305,62.736179 358.942139,61.789661 
	C353.117310,60.057648 350.278992,56.749794 350.426849,52.152588 
	C350.595093,46.922058 353.747833,42.758762 359.556274,41.878056 
	C363.689056,41.251415 368.202576,41.467587 372.259766,42.468540 
	C376.509033,43.516891 379.162506,46.803284 378.895050,51.951801 
	C375.235443,52.018429 371.588043,53.713913 369.032990,49.372444 
	C368.425110,48.339546 366.093903,48.320862 364.146545,47.845490 
z"/>
<path fill="#FFFEFE" opacity="1.000000" stroke="none" 
	d="
M54.101044,11.521856 
	C65.030312,18.265034 66.437599,26.067722 59.223183,38.382900 
	C61.205177,40.797997 63.477448,43.047436 65.138794,45.682106 
	C71.925056,56.444164 64.881233,70.508194 52.180859,70.904961 
	C37.731293,71.356377 23.256779,71.009300 8.041462,71.009300 
	C8.041462,63.916821 8.004656,57.015289 8.098375,50.115528 
	C8.107750,49.425240 8.807734,48.646862 9.359887,48.076553 
	C14.671599,42.590183 20.020391,37.139709 25.790535,31.237076 
	C31.051535,36.975979 35.931427,42.299152 40.662262,47.459728 
	C44.689384,43.326134 47.670261,40.266449 50.922733,36.927986 
	C44.859879,28.231092 33.378777,22.648329 28.853321,11.672453 
	C29.316725,10.943924 29.780128,10.215396 30.243532,9.486867 
	C38.082645,10.100613 45.921757,10.714359 54.101044,11.521856 
M23.164574,59.308430 
	C24.607626,60.042923 26.050678,60.777416 27.493736,61.511906 
	C28.040607,59.912460 28.587481,58.313011 29.134354,56.713562 
	C28.551178,56.227539 27.968002,55.741512 27.384825,55.255489 
	C25.974360,56.331421 24.563892,57.407356 23.164574,59.308430 
M27.149857,54.460785 
	C27.849081,52.931797 28.548306,51.402813 29.524378,49.268448 
	C26.762102,49.268448 25.203974,49.268448 23.433622,49.268448 
	C23.174555,51.972572 22.162434,54.692039 27.149857,54.460785 
z"/>
<path fill="#FEFDFC" opacity="1.000000" stroke="none" 
	d="
M106.099915,55.875423 
	C109.227608,55.896400 111.884827,55.795326 114.524162,55.967831 
	C117.902931,56.188660 120.144562,57.740234 120.185623,61.504124 
	C120.226807,65.279915 118.328880,67.613091 114.680779,67.882828 
	C110.413315,68.198349 106.104637,67.956581 101.426468,67.956581 
	C101.426468,64.062241 101.426468,60.358761 101.426468,56.216835 
	C102.783051,56.106274 104.202271,55.990604 106.099915,55.875423 
z"/>
<path fill="#FEFCFB" opacity="1.000000" stroke="none" 
	d="
M107.039986,37.976418 
	C109.672058,37.998909 111.845871,37.885803 113.993874,38.071438 
	C116.914879,38.323883 119.745232,39.649902 118.876358,42.895119 
	C118.344711,44.880821 115.864494,47.361443 113.901642,47.733765 
	C109.926987,48.487671 105.709000,47.958755 101.325882,47.958755 
	C101.325882,44.611362 101.325882,41.684704 101.325882,37.973946 
	C103.073601,37.973946 104.821915,37.973946 107.039986,37.976418 
z"/>
<path fill="#FEFCFC" opacity="1.000000" stroke="none" 
	d="
M289.879150,56.507896 
	C289.619385,59.520992 290.071869,62.609524 288.797272,64.582031 
	C287.423187,66.708496 284.392944,69.048218 282.157318,68.978645 
	C279.857819,68.907082 276.481598,66.470360 275.676605,64.292419 
	C274.562927,61.279114 274.937103,57.450882 275.556519,54.136543 
	C276.175934,50.822388 278.650116,48.862865 282.395172,48.898232 
	C287.244476,48.944031 288.855072,52.143986 289.879150,56.507896 
z"/>
<path fill="#FCF7F5" opacity="1.000000" stroke="none" 
	d="
M318.381470,69.477928 
	C315.747223,65.392433 317.140533,63.001453 321.130127,61.865211 
	C323.800781,61.104607 326.558990,60.651386 329.274567,60.061375 
	C331.037964,67.682693 326.362122,71.878387 318.381470,69.477928 
z"/>
<path fill="#FCF8F7" opacity="1.000000" stroke="none" 
	d="
M151.988876,61.820511 
	C154.951828,61.182690 157.517731,60.626087 160.072754,60.071846 
	C161.439270,65.801201 159.619446,69.372826 154.446823,70.006966 
	C152.438019,70.253242 149.153763,69.299438 148.310577,67.827080 
	C146.812225,65.210716 148.420227,62.760956 151.988876,61.820511 
z"/>
<path fill="#FEFCFB" opacity="1.000000" stroke="none" 
	d="
M231.976105,50.975296 
	C235.688583,48.122700 239.341919,47.770756 242.764191,50.395584 
	C245.985992,52.866688 246.766006,60.154995 244.697067,64.862694 
	C243.121704,68.447296 240.032745,70.064507 236.636688,68.940903 
	C234.175598,68.126656 230.781631,65.774872 230.480606,63.717098 
	C229.895920,59.720280 231.193832,55.448055 231.976105,50.975296 
z"/>
<path fill="#E1866D" opacity="1.000000" stroke="none" 
	d="
M23.159000,58.895859 
	C24.563892,57.407356 25.974360,56.331421 27.384825,55.255489 
	C27.968002,55.741512 28.551178,56.227539 29.134354,56.713562 
	C28.587481,58.313011 28.040607,59.912460 27.493734,61.511906 
	C26.050678,60.777416 24.607626,60.042923 23.159000,58.895859 
z"/>
<path fill="#E0846C" opacity="1.000000" stroke="none" 
	d="
M26.765369,54.508049 
	C22.162434,54.692039 23.174555,51.972572 23.433622,49.268448 
	C25.203974,49.268448 26.762102,49.268448 29.524378,49.268448 
	C28.548306,51.402813 27.849081,52.931797 26.765369,54.508049 
z"/>
</svg>